<?xml version="1.0" encoding="UTF-8"?>
<svg id="Laag_1" data-name="Laag 1" xmlns="http://www.w3.org/2000/svg" viewBox="0 0 939.68 985.5">
  <defs>
    <style>
      .cls-1 {
        fill: #9294c9;
      }

      .cls-2 {
        fill: #21244d;
      }
    </style>
  </defs>
  <polygon class="cls-2" points="100.33 269.16 100.33 711.3 483.24 932.37 866.15 711.3 866.15 269.16 483.24 48.09 100.33 269.16"/>
  <g>
    <path class="cls-1" d="M435.34,338.35h-82.99l-104.9,303.75h76.41l19.82-70.87h100.34l28.49,70.87h78.04l-115.2-303.75ZM361.4,512.58l32.35-112.67,36.12,112.67h-68.46Z"/>
    <path class="cls-1" d="M669.6,530.47c29.35,0,58.71,0,88.06,0,1.08-8.34,1.86-20.25.09-34.28-.04-.32-.09-.69-.13-1.03v-4.93h-.66c-2.45-17.1-8.72-46.48-34.04-67.96-26.23-22.25-57.22-22.72-67.4-22.36-40.19,1.42-65.63,26.64-73.56,34.5-15.85,15.71-22.84,31.65-24.44,35.44-9.29,22-8.48,41.17-7.77,54.38.82,15.31,2.15,40.03,17.61,64.2,27.18,42.5,76.93,50.26,88.17,51.68,37.92,4.77,67.53-8.74,79.7-15.21.43-16.29.86-32.59,1.29-48.88-27.44,8.43-49.85,7.44-62.95,5.77-16.44-2.09-32.12-4.08-44.84-16.78-12.06-12.03-15-27.23-15.88-34.55h56.76ZM655.51,447.56c23.57,0,42.67,19.11,42.67,42.67h-85.34c0-23.57,19.11-42.67,42.67-42.67Z"/>
  </g>
</svg>