<?xml version="1.0" encoding="UTF-8"?>
<svg id="Laag_1" data-name="Laag 1" xmlns="http://www.w3.org/2000/svg" xmlns:xlink="http://www.w3.org/1999/xlink" viewBox="0 0 939.68 985.5">
  <defs>
    <style>
      .cls-1 {
        fill: #9293c8;
      }

      .cls-2 {
        fill: #21254f;
      }

      .cls-3 {
        fill: #0a0e11;
      }

      .cls-4 {
        fill: #758256;
      }

      .cls-5 {
        clip-path: url(#clippath);
      }
    </style>
    <clipPath id="clippath">
      <polygon class="cls-4" points="93.76 1268.71 93.76 1710.85 476.67 1931.92 859.57 1710.85 859.57 1268.71 476.67 1047.64 93.76 1268.71"/>
    </clipPath>
  </defs>
  <g>
    <polygon class="cls-2" points="93.76 269.16 93.76 711.3 476.67 932.37 859.57 711.3 859.57 269.16 476.67 48.09 93.76 269.16"/>
    <g>
      <path class="cls-1" d="M276.18,335.64v309.18h65.6v-97.11h48.56c58.56,0,106.03-47.47,106.03-106.03h0c0-58.56-47.47-106.03-106.03-106.03h-114.15ZM380.49,490.23h-38.72v-97.11h38.72c26.82,0,48.56,21.74,48.56,48.56h0c0,26.82-21.74,48.56-48.56,48.56Z"/>
      <path class="cls-1" d="M628.47,414.5c-16.69,7.49-28.04,17.53-34.62,24.34v-28.13h-58.96v234.11h58.96v-141.61c4.69-6.08,18.29-22.05,42.19-29.21,18.05-5.41,33.46-3.24,41.11-1.62v-67.62c-10.08-.26-28.38.63-48.68,9.74Z"/>
    </g>
  </g>
  <g>
    <polygon class="cls-4" points="93.76 1268.71 93.76 1710.85 476.67 1931.92 859.57 1710.85 859.57 1268.71 476.67 1047.64 93.76 1268.71"/>
    <g class="cls-5">
      <path class="cls-3" d="M492.93,927.93l.02,396.84c32.46.73,61.38,16.3,88.02,33.27,3.54.01,51.41-44.64,51.41-48.19v-73.04c0-.35,4.63-4.98,4.98-4.98h97.95v102.93h-78.02c-3.49,0-42.28,43.38-50.65,48.1,52.97,66.77,51.48,155.09-.56,222.09,10.38,5.6,47.66,48.55,54.53,48.55h74.7v102.93h-97.95c-.35,0-4.98-4.63-4.98-4.98v-76.36c0-3.4-42.92-41.11-48.63-47.65-29.22,15.14-55.92,31.06-89.39,35.8l-1.43,330.4h-33.2l-1.43-330.4c-33.24-5.37-61.63-17.48-89.4-35.95-5.86,7.17-51.94,47.48-51.94,51.12v78.02h-102.93v-102.93h78.02c3.67,0,51.61-47.8,51.59-51.47-50.97-65.09-48.59-152.65-.48-218.65-9.07-4.63-47.59-48.62-51.11-48.62h-78.02v-102.93h97.95c.35,0,4.98,4.63,4.98,4.98v76.36c0,3.41,43.03,41.09,48.62,47.8,28.89-17.69,58.88-35.71,94.13-36.2l.02-396.84c11.04-.01,22.16-.01,33.2,0ZM455.61,1358.85c-170.42,23.39-141.6,288.19,35.26,270.98,178.04-17.32,151.52-296.61-35.26-270.98Z"/>
    </g>
  </g>
</svg>