<?xml version="1.0" encoding="UTF-8"?>
<svg id="Laag_1" data-name="Laag 1" xmlns="http://www.w3.org/2000/svg" viewBox="0 0 939.68 985.5">
  <defs>
    <style>
      .cls-1 {
        fill: #9294c9;
      }

      .cls-2 {
        fill: #21244d;
      }
    </style>
  </defs>
  <polygon class="cls-2" points="99.55 269.16 99.55 711.3 482.45 932.37 865.36 711.3 865.36 269.16 482.45 48.09 99.55 269.16"/>
  <path class="cls-1" d="M395.97,337.26c-.32-1.56-1.56-2.34-3.74-2.34h-74.37c-.27-.04-.55-.04-.82,0-1.58.23-2.68,1.69-2.46,3.27-.09,6.24-.85,12.46-2.28,18.53-.94,3.59-1.87,6.78-2.81,9.59l-93.55,268.32c-.94,3.43.15,5.15,3.27,5.15h54.73c2.64.13,5-1.64,5.61-4.21l21.98-68.42h108.05l23.86,69.36c.51,2.11,2.52,3.51,4.68,3.27h60.81c2.81,0,3.74-1.56,2.81-4.68l-105.77-297.84ZM318.38,509.45c4.36-12.47,8.81-26.03,13.33-40.7,4.52-14.66,8.96-29,13.33-43.03,3.91-12.3,7.19-24.79,9.82-37.42h.47c1.87,6.87,3.98,14.43,6.31,22.69,2.34,8.26,4.91,16.84,7.72,25.73,2.81,8.89,5.61,17.78,8.42,26.66,2.8,8.89,5.45,17.23,7.95,25.02,2.5,7.8,4.68,14.82,6.55,21.05h-73.91ZM727.2,636.03c-.31-3.11-.7-5.82-1.17-10.35-.47-4.52-.78-9.82-.93-15.9-.16-6.08-.23-13.02-.23-20.82v-178.1c.04-.27.04-.54,0-.81-.22-1.59-1.69-2.69-3.27-2.47h-55.47c-2.81,0-4.21,1.1-4.21,3.27v165c-5.66,4.05-11.87,7.27-18.43,9.59-6.27,2.4-12.93,3.59-19.65,3.51-13.1,0-24.4-3.66-30.01-10.99-5.61-7.32-8.42-17.38-8.42-30.17v-136.47c.04-.31.04-.62,0-.93-.26-1.81-1.93-3.07-3.74-2.81h-55.59c-.31-.04-.63-.04-.94,0-1.81.26-3.06,1.93-2.8,3.74v143.96c-.33,14.03,1.65,28.01,5.85,41.4,3.34,10.44,8.93,20.02,16.37,28.07,6.86,7.23,15.36,12.69,24.79,15.9,10.18,3.38,20.85,5.04,31.57,4.91,10.9-.08,21.75-1.58,32.27-4.44,12.13-3.45,23.33-9.61,32.74-18.01.03,2.06.26,4.12.7,6.14.42,2.44.96,4.86,1.64,7.25.95,2.2,3.23,3.53,5.61,3.27h50.05c2.49,0,3.58-1.24,3.27-3.74Z"/>
</svg>