<?xml version="1.0" encoding="UTF-8"?>
<svg id="Laag_1" data-name="Laag 1" xmlns="http://www.w3.org/2000/svg" viewBox="0 0 939.68 985.5">
  <defs>
    <style>
      .cls-1 {
        fill: #50a4db;
      }

      .cls-2 {
        fill: #132136;
      }
    </style>
  </defs>
  <polygon class="cls-2" points="89.33 269.16 89.33 711.3 472.24 932.37 855.15 711.3 855.15 269.16 472.24 48.09 89.33 269.16"/>
  <g>
    <path class="cls-1" d="M262.96,333.4v309.18h65.6v-97.11h48.56c58.56,0,106.03-47.47,106.03-106.03h0c0-58.56-47.47-106.03-106.03-106.03h-114.15ZM367.28,487.98h-38.72v-97.11h38.72c26.82,0,48.56,21.74,48.56,48.56h0c0,26.82-21.74,48.56-48.56,48.56Z"/>
    <path class="cls-1" d="M667.77,413.37v61.48c-19.65-12.29-37.1-15.95-47.84-17.19-11.23-1.3-31.94-3.69-39,7.31-.39.61-3.02,4.84-2.24,10.08,1.89,12.64,21.57,17.17,41.42,26.31,18.09,8.32,49.71,22.88,58.77,48.14,9.1,25.38-8.02,51.92-10.64,55.97-20.95,32.48-60.2,37.88-77.8,40.3-34.44,4.74-62.62-4.53-77.9-11.07v-56.87c30.47,9.16,53.37,12.19,67.83,13.3,12.54.96,26.26,1.06,30.88-6.62,1.82-3.02,1.63-6.25,1.56-7.1-.81-9.22-12.44-15.08-24.35-20.9-41.77-20.4-40.81-19.12-45.04-22.14-5.89-4.2-22.75-16.55-30.23-39.12-1.97-5.94-7.89-24.7.13-44.99,7.18-18.15,21.48-27.33,29.19-32.29,46.65-29.97,114.41-8.24,125.26-4.61Z"/>
  </g>
</svg>