<?xml version="1.0" encoding="UTF-8"?>
<svg id="Laag_1" data-name="Laag 1" xmlns="http://www.w3.org/2000/svg" viewBox="0 0 939.68 985.5">
  <defs>
    <style>
      .cls-1 {
        fill: #e9486a;
      }

      .cls-2 {
        fill: #400f21;
      }
    </style>
  </defs>
  <polygon class="cls-2" points="121.47 269.16 121.47 711.3 504.38 932.37 887.28 711.3 887.28 269.16 504.38 48.09 121.47 269.16"/>
  <g>
    <rect class="cls-1" x="354.69" y="351.15" width="68.39" height="305.77"/>
    <path class="cls-1" d="M614.88,320.69v96.18h-35.56c-59.04,0-106.9,47.86-106.9,106.9v29.09c0,59.49,48.55,107.37,108.04,106.91,5.78-.04,11.71-.26,17.76-.66,34.99-2.33,63.94-10.34,85.06-18.09v-320.32h-68.39ZM615.78,599.51c-6.39,1.92-14.5,3.6-23.93,3.77-.24,0-.48,0-.72.01-27.83.27-50.31-22.75-50.31-50.58v-32.84c0-27.93,22.64-50.56,50.56-50.56h23.5c.3,43.4.6,86.8.9,130.2Z"/>
  </g>
</svg>