<?xml version="1.0" encoding="UTF-8"?>
<svg id="Laag_1" data-name="Laag 1" xmlns="http://www.w3.org/2000/svg" viewBox="0 0 939.68 985.5">
  <defs>
    <style>
      .cls-1 {
        fill: #fff;
        fill-rule: evenodd;
      }

      .cls-2 {
        fill: #1d71b8;
      }
    </style>
  </defs>
  <polygon class="cls-2" points="100.33 263.21 100.33 705.35 483.24 926.42 866.15 705.35 866.15 263.21 483.24 42.14 100.33 263.21"/>
  <polygon class="cls-1" points="692.32 426.43 685.4 508.88 666.73 690.59 471.97 729.38 472.37 729.41 300.63 693.94 289.43 607.14 289.13 607.34 283.25 564.35 375.14 564.81 387 626.55 472.47 646.32 472.47 645.96 590.88 622.88 602.63 508.88 281.54 507.11 270 427.74 270.57 427.74 270.57 427.74 491.57 366.11 264.88 366.33 254.64 283.66 711.84 283.66 700.46 382.25 561.6 426.43 692.32 426.43"/>
</svg>