<?xml version="1.0" encoding="UTF-8"?>
<svg id="Laag_1" data-name="Laag 1" xmlns="http://www.w3.org/2000/svg" viewBox="0 0 939.68 985.5">
  <defs>
    <style>
      .cls-1 {
        fill: #e95025;
      }

      .cls-2 {
        fill: #fff;
      }

      .cls-3 {
        fill: #46b7ea;
      }

      .cls-4 {
        fill: #4cb37d;
      }

      .cls-5 {
        fill: #765fa6;
      }

      .cls-6 {
        fill: #ee7265;
      }
    </style>
  </defs>
  <polygon class="cls-2" points="93.76 266.74 93.76 708.88 476.67 929.96 859.57 708.88 859.57 266.74 476.67 45.67 93.76 266.74"/>
  <g>
    <path class="cls-1" d="M284.42,295.56c0-53.09,43.04-96.13,96.13-96.13h96.13v192.25h-96.13c-53.09,0-96.13-43.04-96.13-96.13Z"/>
    <path class="cls-6" d="M476.67,199.44h96.13c53.09,0,96.13,43.04,96.13,96.13s-43.04,96.13-96.13,96.13h-96.13v-192.25Z"/>
    <path class="cls-3" d="M476.67,487.81c0-53.09,43.04-96.13,96.13-96.13s96.13,43.04,96.13,96.13-43.04,96.13-96.13,96.13-96.13-43.04-96.13-96.13Z"/>
    <path class="cls-4" d="M284.42,680.06c0-53.09,43.04-96.13,96.13-96.13h96.13v96.13c0,53.09-43.04,96.13-96.13,96.13s-96.13-43.04-96.13-96.13Z"/>
    <path class="cls-5" d="M284.42,487.81c0-53.09,43.04-96.13,96.13-96.13h96.13v192.25h-96.13c-53.09,0-96.13-43.04-96.13-96.13Z"/>
  </g>
</svg>