<?xml version="1.0" encoding="UTF-8"?>
<svg id="Laag_1" data-name="Laag 1" xmlns="http://www.w3.org/2000/svg" xmlns:xlink="http://www.w3.org/1999/xlink" viewBox="0 0 939.68 985.5">
  <defs>
    <style>
      .cls-1 {
        fill: #fff;
      }

      .cls-2 {
        fill: #06080c;
      }

      .cls-3 {
        clip-path: url(#clippath);
      }
    </style>
    <clipPath id="clippath">
      <polygon class="cls-1" points="86.93 277.91 86.93 720.05 469.84 941.12 852.75 720.05 852.75 277.91 469.84 56.83 86.93 277.91"/>
    </clipPath>
  </defs>
  <polygon class="cls-1" points="86.93 277.91 86.93 720.05 469.84 941.12 852.75 720.05 852.75 277.91 469.84 56.83 86.93 277.91"/>
  <g class="cls-3">
    <path class="cls-2" d="M119.24,44.76l693.92-1c58.55,9.47,102.33,53.4,111.75,111.75l.15,682.88c-7.01,60.27-52.49,106.07-111.89,115.67l-682.88.15c-60.27-7.01-106.07-52.49-115.67-111.89V155.51c9.12-56.13,49.35-98.09,104.62-110.75ZM560.15,819.03c7.94,8.53,48.05-9.61,58.65-14.64,350.99-166.58,175.64-723.05-225.6-636.02C69.05,238.67,41.87,710.89,346.84,814.82c56.41,19.22,33.02-18.52,37.59-59.93-25.14,2.92-59.21,7.55-82.81-4.54-24.6-12.61-35.11-53.58-53.17-72.81-6.83-7.27-52.86-31.11-20.36-36.56,54.33-9.11,57.71,73.11,117.72,73.24,5.46.01,35.98-6.34,37.84-8.91,4.62-6.42,2.7-34.87,21.08-41.86-116.89-24.38-181.57-103.01-143.34-224.61,4.5-14.33,19.73-34.33,21.37-43.83,2.29-13.26-4.32-26.19-4.12-40.15.1-6.82,5.56-40.17,8.57-44.59,7.94-11.67,36.99-1.44,49.39,2.81s45.79,26.93,49.93,27.37c17.48,1.83,65.85-13.94,97.66-12.41,18.87.91,57.53,13.6,68.83,12.41,3.38-.36,31.32-19.23,41.67-23.44,42.79-17.41,62.81-24.91,66,29.57.99,16.9-5.85,36.35-3.99,48.38,1.21,7.85,14.15,24.38,18.23,34.92,45.68,118.04-17.25,209.43-136.06,231.61,1.81,13.11,13.65,15.76,16,30.67,3.85,24.39-6.34,114.39,5.28,126.88Z"/>
  </g>
</svg>