<?xml version="1.0" encoding="UTF-8"?>
<svg id="Laag_1" data-name="Laag 1" xmlns="http://www.w3.org/2000/svg" viewBox="0 0 939.68 985.5">
  <defs>
    <style>
      .cls-1 {
        fill: #131414;
      }

      .cls-2 {
        fill: #cbd500;
      }
    </style>
  </defs>
  <polygon class="cls-2" points="89.33 263.21 89.33 705.35 472.24 926.42 855.15 705.35 855.15 263.21 472.24 42.14 89.33 263.21"/>
  <path class="cls-1" d="M718.14,480.18h47.31v66.1h-46.34c-.36,0-1,1.09-.97,1.62-4.39,67.12-27.57,148.43-90.29,183.2-45.23,25.07-101.64,18.1-131.88-25.83-27.68-40.21-14.53-82.85,9.08-120.95,33.71-54.4,90.69-95.55,154.76-104.8,1.37-34.94-22.23-65.48-58.01-68.03-48.49-3.46-84.11,37.77-111.4,72-35.32,44.31-88.38,133.07-149.79,137.96-45.38,3.61-85.54-22.99-100.14-65.75-23.66-69.29,26.05-117.87,76.57-155.49,26.26-19.55,83.89-51.61,91.64-84.64,5.25-22.38-9.76-39.44-32.87-32.23-24.59,7.68-39.37,31.29-57.2,47.79-34.73,32.14-80.77,52.83-127.37,32.39v-62.22c6.01,1.15,11.84,2.91,17.93,3.78,64.7,9.3,85.98-51.47,138.73-72.33,68.1-26.92,140.88,5.83,123.11,87.46-7.34,33.7-41.34,67.71-67.91,88.28-23.89,18.5-75.97,48.04-88.19,74.48-7.08,15.31-6.13,35.9,7.24,47.44,34.46,29.74,76.63-22.27,96.55-46.7,45.11-55.34,101.94-151.2,183.79-146.8,72.88,3.92,110.86,78.26,115.65,143.26ZM657.22,545.64c-41.1,8.19-78.99,36.42-98.84,73.22-9.21,17.06-18.25,39.72.39,54.07,23.42,18.03,51.26-6.34,65.02-24.95,21.34-28.86,30.54-67.04,33.43-102.34Z"/>
</svg>