<?xml version="1.0" encoding="UTF-8"?>
<svg id="Laag_1" data-name="Laag 1" xmlns="http://www.w3.org/2000/svg" viewBox="0 0 939.68 985.5">
  <defs>
    <style>
      .cls-1 {
        fill: #e94e1b;
      }

      .cls-2 {
        fill: #fff;
        fill-rule: evenodd;
      }
    </style>
  </defs>
  <polygon class="cls-1" points="121.47 263.21 121.47 705.35 504.38 926.42 887.28 705.35 887.28 263.21 504.38 42.14 121.47 263.21"/>
  <path class="cls-2" d="M741.51,431.75l-19.81,273.17-205.95,63.33-.48-1.56-.3,1.23-227.13-50.93-7.64-134.39,80.78-.05,4.11,69.9,149.45,31.51h0l129.09-39.69,6.35-131.62h-359.05v-.51l-11.61.51c0-.07-.01-.19-.02-.34-.72-12.33-19.43-272.51-19.43-272.51h489.04l-10.79,80.91h-386.18l4.84,111.03h384.75Z"/>
</svg>