<?xml version="1.0" encoding="UTF-8"?>
<svg id="Laag_1" data-name="Laag 1" xmlns="http://www.w3.org/2000/svg" viewBox="0 0 939.68 985.5">
  <defs>
    <style>
      .cls-1, .cls-2 {
        fill: #fff;
      }

      .cls-2 {
        fill-rule: evenodd;
      }

      .cls-3 {
        fill: #f9b233;
      }
    </style>
  </defs>
  <polygon class="cls-3" points="99.55 263.21 99.55 705.35 482.45 926.42 865.36 705.35 865.36 263.21 482.45 42.14 99.55 263.21"/>
  <polygon class="cls-2" points="433.46 696.29 358.69 684.47 359.2 294.6 434.23 294.7 433.46 696.29"/>
  <polygon class="cls-2" points="433.85 624.04 422.35 692.06 266.2 674.6 258.86 601.68 433.85 624.04"/>
  <polygon class="cls-2" points="706.04 294.65 696.06 370.25 509.28 368.75 509.28 294.65 706.04 294.65"/>
  <rect class="cls-1" x="509.56" y="328.71" width="75.02" height="177.19" transform="translate(-1.32 1.73) rotate(-.18)"/>
  <polygon class="cls-2" points="696.15 454.53 691.36 529.56 509.28 530.03 509.28 454.53 696.15 454.53"/>
  <polygon class="cls-2" points="686.81 618.08 683.97 693.06 511.5 693.06 512.72 621.18 686.81 618.08"/>
</svg>