<?xml version="1.0" encoding="UTF-8"?>
<svg id="Laag_1" data-name="Laag 1" xmlns="http://www.w3.org/2000/svg" viewBox="0 0 939.68 985.5">
  <defs>
    <style>
      .cls-1 {
        fill: #704997;
      }

      .cls-2 {
        fill: #dd3d77;
      }

      .cls-3 {
        fill: #fff;
      }

      .cls-4 {
        fill: #a14593;
      }

      .cls-5 {
        fill: #ce3a8d;
      }

      .cls-6 {
        fill: #884c98;
      }
    </style>
  </defs>
  <polygon class="cls-3" points="100.33 266.74 100.33 708.88 483.24 929.96 866.15 708.88 866.15 266.74 483.24 45.67 100.33 266.74"/>
  <g>
    <path class="cls-1" d="M299.91,345.59c8.61-.43,18.28,3.03,24.76,8.57,13.18,11.26,22.9,29.51,32.81,40.24,28.85,31.26,60.44,54.14,90.22,82.82,50.33,48.47,94.09,104.82,144.34,151.74,18.22,17.01,42.74,33.27,60.72,53.36,6.22,6.95,8.02,17.86,9.06,19.11,2.5,2.99,17-.7,14.92,8.17-12.77-.34-25.67.22-38.45,0-22.57-.39-45.37-.28-67.97-.04-4.33.05-11.4-1.64-14.06,2.61-86.27.04-172.65-.04-258.92.01.72-93.56-.87-187.23-.09-280.82.23-28.24,3.08-57.02,2.67-85.77Z"/>
    <path class="cls-6" d="M376.82,273.82l-5.11,10.23c20.99-1.81,11.89.78,16.78,10.07,1.35,2.56,5.68,7.78,7.84,10.18,40.81,45.37,96.59,87.59,135.65,133.49,4.76,5.6,6.19,7.93,5.02,15.41,4.79-3.83,11.59-3.23,16.7.06-5.06,5.15-33.51,33.38-34.69,35.94-1.3,2.82-1.99,4.82,0,7.58l214.19,208.98c-.47,2.49,1.39,6.08-1.52,6.45-12.42,1.58-32.86.39-46.1-.02-3.77-.12-7.44-2.54-8.84-2.58,2.08-8.87-12.42-5.18-14.92-8.17-1.04-1.24-2.84-12.16-9.06-19.11-17.98-20.08-42.5-36.35-60.72-53.36-50.25-46.92-94.01-103.27-144.34-151.74-29.78-28.68-61.37-51.56-90.22-82.82-9.91-10.74-19.63-28.98-32.81-40.24-6.48-5.54-16.15-9-24.76-8.57-.24-16.76-1.79-28.38-2.68-44.74-.27-4.99-1.43-23.12,2.68-24.48,8.9-2.95,51.74.59,65.58.11,3.35-.12,5.86-2.66,6.2-2.67,1.71-.05,3.42.05,5.13,0Z"/>
    <path class="cls-5" d="M597.27,273.82c-.99,8.4,13.48,5.81,19.67,8.63,2.52,1.15,27.78,29.96,32.72,35.14,6.12,6.43,12.13,3.37,9.16,17.75,3.96-.63,5.88-6.32,8.99-7.67,4.99-2.16,2.89,7.33,8.93,5.1-21.09,20.71-43.12,40.65-64.09,61.52l-107.63-108.99-.02-3.79,15.35-2.55c-38.81-3.79-77.67-2.06-116.66-2.54-4.33-.05-11.39,1.64-14.06-2.61,69.03-1.45,138.57-.11,207.64,0Z"/>
    <path class="cls-2" d="M597.27,273.82c46.11.07,92.32-.07,138.43.03-18.66,20.54-39.17,39.51-58.96,58.93-6.03,2.23-3.94-7.26-8.93-5.1-3.11,1.35-5.03,7.04-8.99,7.67,2.97-14.37-3.03-11.31-9.16-17.75-4.94-5.18-30.2-33.99-32.72-35.14-6.2-2.83-20.66-.24-19.67-8.63Z"/>
    <path class="cls-6" d="M638.29,709.6c-2.67,4.25-9.73,2.55-14.06,2.61-22.64.28-45.36-.05-67.97-.04,2.66-4.25,9.73-2.56,14.06-2.61,22.6-.24,45.4-.35,67.97.04Z"/>
    <path class="cls-4" d="M371.69,273.82c-.34.01-2.85,2.56-6.2,2.67-13.84.48-56.68-3.05-65.58-.11,22.64-5.87,48.39-.98,71.78-2.56Z"/>
    <path class="cls-4" d="M389.64,273.82c2.67,4.25,9.73,2.55,14.06,2.61,38.99.48,77.85-1.24,116.66,2.54l-15.35,2.55.02,3.79,107.63,108.99c-19.6,19.52-39.58,39.25-58.96,58.96-5.12-3.29-11.91-3.89-16.7-.06,1.17-7.48-.25-9.82-5.02-15.41-39.06-45.9-94.85-88.12-135.65-133.49-2.16-2.4-6.5-7.62-7.84-10.18-4.89-9.29,4.21-11.88-16.78-10.07l5.11-10.23c4.27-.11,8.55.09,12.82,0Z"/>
  </g>
</svg>