<?xml version="1.0" encoding="UTF-8"?>
<svg id="Laag_1" data-name="Laag 1" xmlns="http://www.w3.org/2000/svg" viewBox="0 0 939.68 985.5">
  <defs>
    <style>
      .cls-1 {
        fill: #fefefe;
      }

      .cls-2 {
        fill: #121313;
      }

      .cls-3 {
        fill: #51c0df;
      }
    </style>
  </defs>
  <polygon class="cls-2" points="62.24 266.74 62.24 708.88 445.14 929.96 828.05 708.88 828.05 266.74 445.14 45.67 62.24 266.74"/>
  <path class="cls-3" d="M612.14,233.73v214.01h-84.55c-1.92-4.93-2.84-10.45-4.74-15.61-9.69-26.33-32.27-48.23-60.04-54.34-48.26-10.61-90.04,23.54-99.07,69.95h-84.2c3.79-47.46,28.2-93,66.44-121.26,45.89-33.92,108.68-40.68,161.78-20.3,7.18,2.75,13.98,6.32,20.87,9.65v-82.1h83.5Z"/>
  <path class="cls-1" d="M361.64,497.56v49.82l89.49.03c24.71-2.36,47.5-13.86,61.94-34.19,3.6-5.07,6.02-10.62,9.6-15.66h85.96c-9.1,53.06-45.53,99.38-95.45,119.61-47.32,19.18-101.57,9.02-151.54,11.6v75.08h-83.5v-205.24c0-.07.98-1.05,1.05-1.05h82.45Z"/>
</svg>