<?xml version="1.0" encoding="UTF-8"?>
<svg id="Laag_1" data-name="Laag 1" xmlns="http://www.w3.org/2000/svg" viewBox="0 0 939.68 985.5">
  <defs>
    <style>
      .cls-1 {
        fill: #6ba166;
      }

      .cls-2 {
        fill: #fff;
      }

      .cls-3 {
        fill: #353535;
      }

      .cls-4 {
        fill: #58a249;
      }

      .cls-5 {
        fill: #42883f;
      }
    </style>
  </defs>
  <polygon class="cls-2" points="121.47 266.74 121.47 708.88 504.38 929.96 887.28 708.88 887.28 266.74 504.38 45.67 121.47 266.74"/>
  <g>
    <path class="cls-3" d="M217.65,406.58c13.29,7.22,26.57,14.6,39.68,22.13,3.35,1.92,6.84,3.62,10.15,5.53,2.45,1.41,5.57,3.94,8.31,5.53,6.18,3.61,12.81,6.58,18.46,11.07.15,1.25,1.81,3.31,1.85,3.69.46,5.21-.1,11.24,0,16.6.11,6.12.05,12.32,0,18.44-.05,6.13.04,12.31,0,18.44-.04,5.93-.09,12.56,0,18.44.02,1.54-.03,3.07,0,4.61-1.58,2.34-1.54,7.99,0,10.14-.02,1.23.02,2.46,0,3.69-.1,5.67-.81,12.34-.92,18.44-.01.61.01,1.23,0,1.84,0,.31,0,.61,0,.92-.02,1.02-.92,2.27-.92,2.77-1.65.67-2.58.81-4.31.24-7.41-2.42-24.39-13.38-32.6-17.77-3.02-1.61-7.02-5.87-11.07-6.46-4.8-5.46-3.52-11.83-3.69-18.44-.16-6.12.02-12.32,0-18.44-.02-5.07-.04-10.17-.04-15.25,0-4.44,2.18-6.77-1.28-11.55-1.28-1.76-20.23-12.91-22.63-13.42-3.08-.65-7.49.51-9.27,3.33-2.71.38-4.94,2.43-7.38,3.69-8.59,4.41-11.37,4.44-12,14.76-.36,5.96.06,12.4,0,18.44-.06,6.13.11,12.31,0,18.44-.07,3.75.8,13.12-.92,15.68-.29.43-4.73,4.08-5.54,4.61-5.07,3.36-12.84,6.93-18.46,10.14-3.69,2.11-7.4,4.4-11.07,6.46-2.39,1.33-5.27,3.61-7.38,4.61-5.87,2.78-8.62,2.35-9.23-4.61-.5-5.75.06-12.53,0-18.44s.03-12.31,0-18.44-.01-12.31,0-18.44-.03-12.31,0-18.44c.03-6.14-.08-12.31,0-18.44.06-4.49-.88-15.02,0-18.44.51-1.98,7.15-6.08,9.23-7.38,11.94-7.45,26.32-15.08,38.76-22.13,3.71-2.11,7.38-4.39,11.07-6.46,1.64-.92,3.76-1.8,5.54-2.77,3.48-1.9,12.14-7.92,15.69-7.38Z"/>
    <path class="cls-3" d="M663.36,320.81c1.87.89,2.62,2.38,5.54,2.77,3.99,3.96,9.87,4.95,12.92,10.14v191.83c-.28,5.59,1.43,15.7-1.83,19.84l-29.54,17.97c-2.71.39-3.52,1.75-5.54,2.77-6.48,3.26-12.22,7.56-18.46,11.07-2.12,1.19-7.84,1.68-7.38,4.61-4.05.59-7.47,3.96-11.07,5.53-9.32,4.07-10.66-2.01-18.46-4.61-.41-.14-.81-.78-1.85-.92-5.11-4.01-11.01-6.92-16.61-10.14-12.2-7.03-24.75-13.66-36.91-20.29-2.02-1.1-6.7-5.91-9.23-6.46-.08-.59.12-1.32,0-1.84-.1-.44-.48-.79-.92-.92-.63-4.31.01-11,0-15.68-.01-6.14,0-12.31,0-18.44s-.04-12.31,0-18.44-.1-12.31,0-18.44c.08-4.62-.91-13.92.92-17.52,1.22-2.4,6.61-4.88,9.23-6.46,12.08-7.27,24.65-14.22,36.91-21.21,5.84-3.33,11.67-6.91,17.53-10.14.36-.2.62-.76.92-.92,5.95-3.24,11.49-7.11,18.46-4.61,1.85.66,7.68,4.21,10.15,5.53,1.65.88,8.21,7.31,10.66,3.74.98-1.43.38-18.67.41-22.18.06-6.14-.02-12.31,0-18.44s-.02-12.31,0-18.44-.04-12.31,0-18.44-1.05-30.64.48-34.1c.9-2.02,3.83-3.58,6.01-2.4,9.15,5.17,18.17,10.75,27.65,15.29ZM589.54,476.67c-2.88,1.69-12.29,4.66-12.92,7.86-.29,1.48.06,3.44,0,5.05-.21,5.94-.21,12.5,0,18.44.07,1.91-.49,4.93.45,6.47,4.14,2.47,8.32,4.92,12.47,7.36,2.08,1.22,11.45,7.08,12.67,7.26,3.01.44,4.37-2.84,5.79-3.57.41-.21,1.67,0,2.67-.53,6.15-3.29,11.93-7.28,18.11-10.53.23-4.53,1.44-29.68-.15-31.46-7.19-3.32-13.58-8.38-20.63-11.9-1.47-.73-4.18-2.59-5.61-2.33-3.8,2.02-7.58,4.09-11.35,6.17-.84.46-1.23,1.53-1.5,1.69Z"/>
    <path class="cls-3" d="M811.01,414.88c.6.33,1.25.59,1.85.92,5.47,3.05,11.26,6.16,16.61,9.22,12.03,6.88,25.24,14.7,36.91,22.13,1.91,1.22,7.29,3.63,8.31,5.53,1.42,2.68,1.1,14.72.92,18.44-.19,4.06.64,7.62-2.25,11.12-2.55,3.09-20.58,12.77-25.43,15.62-4.1,2.41-14.91,7.09-17.53,10.14-.24.28-.76.47-.92.92-2.5.42-6.67.05-7.38-2.77-.87-3.44.18-12.22,0-16.6-.09-2.15.55-5.67-.47-7.38-.5-.84-8.9-5.54-10.61-6.46-2.52-1.35-6.73-4.27-9.23-4.61-2.44-2.81-4.73-3.33-8.34-2.33-3.11.86-18.29,10.09-21.19,12.48-.81.67-1.22.77-1.85,1.84-.17.28-.84.56-.92.92-.31,1.42.07,3.86,0,5.53-.31,7.58-.18,15.48.48,23.04,1.4,3.11,18.67,10.63,22.59,12.93.31.18.56.71.92.92,5.83,3.39,11.71,6.75,17.53,10.14,10.76,6.26,21.51,12.61,32.22,18.98,2.58,2.65,1.82,3.97.08,6.85-2.4-.06-11.94,6.79-14.76,8.3-5.35,2.85-29.51,16.62-33.22,16.6-.07,0-.26-.75-.92-.92-.54-.14-1.41.17-1.85,0-7.33-2.84-19.47-11.6-27.06-15.84-3.04-1.7-7.4-3.08-9.85-4.45-.72-.4-2.03-1.84-3.69-2.77-4.91-2.75-9.84-5.55-14.76-8.3s-13.49-9.46-18.46-10.14c-.02-.6.1-1.32,0-1.84-.09-.44-.49-.8-.92-.92-.12-.56.13-1.31,0-1.84.18-28.57-.24-57.2,0-85.77,0-.31,0-.61,0-.92,0-.15.92-.99.92-1.84,6.07-3.8,12.26-7.48,18.46-11.07,3.69-2.14,7.39-4.33,11.07-6.46,2.59-1.49,5.03-3.25,7.38-4.61,7.1-4.1,14.65-7.81,21.84-11.83,4.64-2.59,10.69-7.32,15.07-9.38.39-.18,1.31.15,1.85,0,.31-.09.71-.91.92-.92,4.1-.21,11.8,5.21,15.69,7.38Z"/>
    <path class="cls-1" d="M811.01,487.74c.19.61.82,1.3.92,1.84.35,1.97.24,15.5-.45,16.61-.41.66-12.31,7.6-13.38,7.89-2.33.63-2.63.32-4.63-.52-3.1-1.31-8.32-6.52-12-6.46v-17.52c1.32-.5,9.12-7.08,12-8.3,6.52-2.76,11.25,5.21,17.53,6.46Z"/>
    <path class="cls-4" d="M387.44,420.42v122.66c-9.72-13.1-15.86-30.39-24.73-43.99-.58-.88-1.06-2.47-2.48-2.12-2.6.65-23.13,41.16-27.23,46.11-3.13-4.45-1.73-11.08-1.85-16.6-.13-6.13.04-12.31,0-18.44s-.04-12.31,0-18.44c.04-6.13-.12-12.31,0-18.44.09-4.53-.5-10-.02-14.31,1.03-9.27,12.98-10.02,18.48-16.12,3.79-.88,8.85-3.25,11.07-6.46,3.29-.45,4.91-2.43,7.38-3.69,6.42-3.26,13.11-6.63,19.38-10.14Z"/>
    <path class="cls-5" d="M387.44,543.08l23.07,44.27c-1.63.14-4.02-.32-5.54-.92-1.68-.67-5.25-3.42-7.38-4.61-3.69-2.06-7.36-4.36-11.07-6.46-6.05-3.41-12.57-6.71-18.46-10.14-1.53-.89-3.05-1.85-4.61-2.77-4.41-2.57-9.3-5.59-13.84-8.3-4.58-2.74-13.81-7.09-16.61-11.07,4.1-4.95,24.63-45.46,27.23-46.11,1.42-.35,1.91,1.24,2.48,2.12,8.87,13.6,15.01,30.89,24.73,43.99Z"/>
    <path class="cls-1" d="M423.43,413.96c.73.3.24,1.46,3.69,1.84-.49,2.23,1.14,1.91,2.43,2.6,4.08,2.19,8.34,4.33,12.34,6.62,12.19,6.98,24.94,13.96,36.91,21.21,3.83,2.32,5.19,3.51,8.31,6.46-2.13-.26-3.54,3.68-4.43,5.26-6.19,10.98-11.98,21.99-18.64,32.55-3.87-1.31-10.24-14.48-12.12-15.54-1.27-.71-3.04-.02-3.42,1.39l.78,88.85c-2.34,1.34-4.77,3.12-7.38,4.61-6.04,3.43-26.21,17.07-31.38,17.52l-23.07-44.27v-122.66c5.46-3.06,11.5-8.9,17.53-11.07,7.52-2.69,11.73,1.83,18.46,4.61Z"/>
    <path class="cls-5" d="M487.11,452.7c.19.18.21.99.92.92,1.56,5.64.88,11.71.92,17.52.04,6.14-.01,12.31,0,18.44s.03,12.31,0,18.44.13,12.32,0,18.44.89,11.89-1.85,17.52c-.47,0-7.01,3.89-8.31,4.61-8.02,4.47-15.99,9.27-23.99,13.83v-75.62c2.06-2.08,6.62,5.51,6.47,7.37,2.83.79,1.88-2.3,2.75-3.69,6.66-10.56,12.45-21.57,18.64-32.55.89-1.58,2.31-5.52,4.43-5.26Z"/>
    <path class="cls-4" d="M449.27,565.21l-.78-88.85c.37-1.41,2.15-2.1,3.42-1.39,1.88,1.05,8.25,14.23,12.12,15.54-.87,1.38.07,4.48-2.75,3.69.15-1.86-4.42-9.45-6.47-7.37v75.62c-2.01,1.14-3.83,1.79-5.54,2.77Z"/>
  </g>
</svg>