<?xml version="1.0" encoding="UTF-8"?>
<svg id="Laag_1" data-name="Laag 1" xmlns="http://www.w3.org/2000/svg" xmlns:xlink="http://www.w3.org/1999/xlink" viewBox="0 0 939.68 985.5">
  <defs>
    <style>
      .cls-1 {
        fill: #121313;
      }

      .cls-2 {
        fill: #97cfbc;
      }

      .cls-3 {
        fill: none;
      }

      .cls-4 {
        fill: #71c1a5;
      }

      .cls-5 {
        clip-path: url(#clippath);
      }
    </style>
    <clipPath id="clippath">
      <rect class="cls-3" x="272.15" y="268.95" width="400.18" height="352.66"/>
    </clipPath>
  </defs>
  <polygon class="cls-1" points="89.33 266.74 89.33 708.88 472.24 929.96 855.15 708.88 855.15 266.74 472.24 45.67 89.33 266.74"/>
  <g class="cls-5">
    <g>
      <path class="cls-4" d="M454.9,268.95c-23.36,0-50.15.59-68.7,3.53-12.37,1.76-18.55,6.47-22.67,19.4-30.23,92.28-59.09,186.91-83.13,279.77-5.5,21.16-8.25,29.39-8.25,34.68,0,7.64,5.5,12.34,17.86,13.52,13.74,1.17,30.92,1.76,51.53,1.76h6.87c1.66,0,3.31-.01,4.96-.02,2.08.01,4.18.02,6.34.02h6.87c15.8,0,31.6-.59,44.66-1.76,10.99-1.18,15.12-4.11,17.17-14.69,2.06-11.17,4.81-26.45,7.56-38.79h72.14c2.75,12.34,5.5,27.62,7.56,38.79,2.06,10.58,6.18,13.52,17.18,14.69,13.05,1.17,28.85,1.76,44.66,1.76h6.87c2.16,0,4.26-.01,6.34-.02,1.65.01,3.3.02,4.96.02h6.87c20.61,0,37.79-.59,51.53-1.76,12.37-1.18,17.86-5.88,17.86-13.52,0-5.29-2.75-13.52-8.24-34.68-24.04-92.86-52.9-187.49-83.13-279.77-4.12-12.93-10.31-17.63-22.67-19.4-18.55-2.94-45.34-3.53-68.7-3.53h-34.28ZM449.71,494.07c6.94-33.33,14.7-69.79,22.33-102.34,7.63,32.55,15.4,69.02,22.33,102.34h-44.66Z"/>
      <path class="cls-2" d="M549.01,271.32c-17.65-1.93-39.97-2.37-59.83-2.37h-18.43c46.65,26.21,90.74,56.71,131.72,91.11-6.34-20.14-12.78-40.2-19.31-60.18-11.21-9.83-22.6-19.35-34.15-28.57Z"/>
      <path class="cls-2" d="M409.64,270.09c73.99,31.06,142.75,73.35,203.85,125.38-.5-1.63-1.01-3.26-1.51-4.88-56.93-49.02-120.46-89.8-188.73-121.15-4.63.16-9.19.37-13.61.65Z"/>
      <path class="cls-2" d="M367.76,282.55c97.43,33.15,183.69,85.18,258.78,156.09-.91-3.07-1.83-6.15-2.75-9.22-72.72-68.32-155.86-119.77-249.24-153.36-2.75,1.6-5.08,3.82-6.79,6.5Z"/>
      <path class="cls-2" d="M358.32,307.83c-.91,2.81-1.82,5.62-2.73,8.44,110.67,33.82,206.02,93.64,286.92,177.39-.96-3.39-1.92-6.77-2.88-10.16-79.71-81.93-173.29-141.43-281.31-175.67Z"/>
      <path class="cls-2" d="M476.41,410.75c.74,3.28,1.48,6.58,2.23,9.91,68.94,36.61,130.13,86.16,184.14,147.54-.94-3.63-1.9-7.26-2.85-10.9-53.96-60.69-114.97-110-183.51-146.55Z"/>
      <path class="cls-2" d="M466.81,414.53c.59-2.64,1.19-5.26,1.78-7.87-40.25-20.68-82.66-36.88-126.45-48.29-.93,2.96-1.86,5.92-2.79,8.88,44.09,11.04,86.83,26.9,127.46,47.29Z"/>
      <path class="cls-2" d="M489.05,468.72c1.81,8.57,3.59,17.06,5.31,25.35h-44.66c2.7-12.97,5.53-26.42,8.42-39.92-42.7-18.48-87.37-32.02-133.14-40.36-6.5,21.42-12.82,42.84-18.98,64.29,119.56,13.94,220.26,64.33,305,143.49,16.88-.14,31.23-.72,43.05-1.73,9.34-.89,14.76-3.79,16.85-8.45-52.1-58.98-112.26-107.33-181.86-142.67Z"/>
      <path class="cls-2" d="M280.4,571.65c-5.5,21.16-8.25,29.39-8.25,34.68,0,7.64,5.5,12.34,17.86,13.52,13.74,1.17,30.92,1.76,51.53,1.76h6.87c1.66,0,3.31-.01,4.96-.02,2.08.01,4.18.02,6.34.02h6.87c15.8,0,31.6-.59,44.66-1.76,10.99-1.18,15.12-4.11,17.17-14.69,2.06-11.17,4.81-26.45,7.56-38.79h72.14c2.75,12.34,5.5,27.62,7.56,38.79,2.06,10.58,6.18,13.52,17.17,14.69,13.05,1.17,28.85,1.76,44.66,1.76h6.87c2.16,0,4.26-.01,6.34-.02,1.65.01,3.3.02,4.96.02h6.87c.89,0,1.74,0,2.61-.01-83.59-68.94-183.88-112.68-304.61-124.33-7.01,24.86-13.72,49.65-20.14,74.37Z"/>
    </g>
  </g>
</svg>