<?xml version="1.0" encoding="UTF-8"?>
<svg id="Laag_1" data-name="Laag 1" xmlns="http://www.w3.org/2000/svg" xmlns:xlink="http://www.w3.org/1999/xlink" viewBox="0 0 939.68 985.5">
  <defs>
    <style>
      .cls-1 {
        fill: #fdfdfd;
      }

      .cls-2 {
        fill: #0a0e11;
      }

      .cls-3 {
        fill: #758256;
      }

      .cls-4 {
        clip-path: url(#clippath);
      }
    </style>
    <clipPath id="clippath">
      <polygon class="cls-3" points="93.76 263.21 93.76 705.35 476.67 926.42 859.57 705.35 859.57 263.21 476.67 42.14 93.76 263.21"/>
    </clipPath>
  </defs>
  <polygon class="cls-3" points="93.76 263.21 93.76 705.35 476.67 926.42 859.57 705.35 859.57 263.21 476.67 42.14 93.76 263.21"/>
  <g class="cls-4">
    <path class="cls-2" d="M492.93-77.57l.02,396.84c32.46.73,61.38,16.3,88.02,33.27,3.54.01,51.41-44.64,51.41-48.19v-73.04c0-.35,4.63-4.98,4.98-4.98h97.95v102.93h-78.02c-3.49,0-42.28,43.38-50.65,48.1,52.97,66.77,51.48,155.09-.56,222.09,10.38,5.6,47.66,48.55,54.53,48.55h74.7v102.93h-97.95c-.35,0-4.98-4.63-4.98-4.98v-76.36c0-3.4-42.92-41.11-48.63-47.65-29.22,15.14-55.92,31.06-89.39,35.8l-1.43,330.4h-33.2l-1.43-330.4c-33.24-5.37-61.63-17.48-89.4-35.95-5.86,7.17-51.94,47.48-51.94,51.12v78.02h-102.93v-102.93h78.02c3.67,0,51.61-47.8,51.59-51.47-50.97-65.09-48.59-152.65-.48-218.65-9.07-4.63-47.59-48.62-51.11-48.62h-78.02v-102.93h97.95c.35,0,4.98,4.63,4.98,4.98v76.36c0,3.41,43.03,41.09,48.62,47.8,28.89-17.69,58.88-35.71,94.13-36.2l.02-396.84c11.04-.01,22.16-.01,33.2,0ZM455.61,353.35c-170.42,23.39-141.6,288.19,35.26,270.98,178.04-17.32,151.52-296.61-35.26-270.98Z"/>
    <path class="cls-1" d="M453.81,355.22c186.78-25.63,213.3,253.67,35.26,270.98-176.86,17.2-205.68-247.6-35.26-270.98ZM517.7,447.32h-83.01v79.69h83.01v-79.69Z"/>
    <rect class="cls-2" x="433.16" y="450.44" width="83.01" height="79.69"/>
  </g>
</svg>